PathFileType	4	(X/Y/Z)	pose_F01_0-90.trc
DataRate	CameraRate	NumFrames	NumMarkers	Units	OrigDataRate	OrigDataStartFrame	OrigNumFrames
30	30	9	21	m	30	33	90
Frame#	Time	CHip			RHip			RKnee			RAnkle			RBigToe			RSmallToe			RHeel			LHip			LKnee			LAnkle			LBigToe			LSmallToe			LHeel			Neck			Nose			RShoulder			RElbow			RWrist			LShoulder			LElbow			LWrist			
		X1	Y1	Z1	X2	Y2	Z2	X3	Y3	Z3	X4	Y4	Z4	X5	Y5	Z5	X6	Y6	Z6	X7	Y7	Z7	X8	Y8	Z8	X9	Y9	Z9	X10	Y10	Z10	X11	Y11	Z11	X12	Y12	Z12	X13	Y13	Z13	X14	Y14	Z14	X15	Y15	Z15	X16	Y16	Z16	X17	Y17	Z17	X18	Y18	Z18	X19	Y19	Z19	X20	Y20	Z20	X21	Y21	Z21	
33	1.1	-0.2281385502954213	1.8206221297809648	-0.5490769659917618	-0.24385608817500745	1.8185523280244977	-0.4923330083536783	-0.22886099290611664	1.6875888892252457	-0.48898875425914046	-0.20764020311558662	1.5660263831942283	-0.49948442985905317	-0.24151813589566756	1.5265173219959016	-0.5045101073755103				-0.1958075424233134	1.5630145762922651	-0.4896745283001192	-0.21537313663336144	1.8228755409987234	-0.6098606147494882	-0.20657626217682082	1.6856127233899718	-0.5872514453308815	-0.2048862846353017	1.5497979214089974	-0.5699896765003833	-0.25628168338105456	1.5115117339824078	-0.5836126722589993	-0.2431898965117859	1.5188149311023458	-0.6006129249653707	-0.19406531561249446	1.5379382420042675	-0.5585650556479158	-0.21150634618477995	1.982092331833333	-0.576376701639382	-0.24221357567426807	2.051909494537891	-0.5938755638592292	-0.23380669741252116	1.9805455703145203	-0.4884599729746205	-0.24765702376564247	1.8922173726466742	-0.4610015259537334	-0.261717025101607	1.822138095511853	-0.44629414906820475	-0.18688238184038622	1.9843037921944162	-0.6558529074500777	-0.18343774240535293	1.8937455201593982	-0.6717969043298034	-0.19839528340807602	1.8155618763705828	-0.6736821964674196
34	1.1333333333333333	-0.22822085405262474	1.8205034123568131	-0.5489025425176339	-0.24577754764529935	1.8174028066521706	-0.4899762998665447	-0.22947562457926055	1.6842687848587279	-0.48377283099829854	-0.20764020311558662	1.5660263831942283	-0.49948442985905317	-0.24151813589566756	1.5265173219959016	-0.5045101073755103				-0.1958075424233134	1.5630145762922651	-0.4896745283001192	-0.21651681099866257	1.8227908874943737	-0.6043559451782878	-0.2075844957244239	1.6847022724734964	-0.5819549328408519	-0.2049022752963282	1.5497771989182614	-0.57000149959595	-0.2561559706786848	1.5110114715325074	-0.5836149777009835	-0.24217867399921122	1.5186515352368357	-0.5974951020411217	-0.19690886352920622	1.5366744474321228	-0.5598599223091351	-0.21466433262665868	1.9814696354258368	-0.5687228326111462	-0.24217990329208844	2.051871078450581	-0.5938045091837358	-0.23585937123247908	1.9806225783865572	-0.4861759203324904	-0.251894353602131	1.8898773837438547	-0.4563656077466348	-0.2658158492599277	1.8181998114166535	-0.4412575016250152	-0.18445995968175724	1.9850514993644053	-0.6468845940949396	-0.18488171884038976	1.8972157391439135	-0.6663805857194363	-0.19567348123887485	1.8181753247471568	-0.6644040718509582
35	1.1666666666666667	-0.22820253389254583	1.8177206790004443	-0.5484348347306506	-0.24580972070020785	1.8175839901061108	-0.4897855704685394	-0.22957221299647493	1.6817686212582432	-0.4833818931883544	-0.20764020311558662	1.5660263831942283	-0.49948442985905317	-0.24151813589566756	1.5265173219959016	-0.5045101073755103				-0.1958075424233134	1.5630145762922651	-0.4896745283001192	-0.21354092783072395	1.819800669517817	-0.6029835869794488	-0.20769484093591656	1.6819913633300796	-0.5815870391985326	-0.20659763690582827	1.5509033555202179	-0.5684048129310229	-0.25654397438013143	1.5134050683952547	-0.5833715793662282	-0.2401194031535269	1.5190444734540656	-0.599619738187599	-0.19604842812810333	1.5374388848709808	-0.5562917100427698	-0.21082384347699118	1.9813772001552226	-0.5645258916153226	-0.2421705329661072	2.0518094898019377	-0.5937512019467495	-0.235964580118649	1.9793246051941176	-0.4861965977417707	-0.2537610525559613	1.8910551233347999	-0.4543866012094552	-0.26772679406261163	1.8190822086739	-0.44786904328231947	-0.1844475307040955	1.9838493883022654	-0.6467282773784008	-0.18383518221519496	1.89718192220674	-0.6631261248811926	-0.1945994227284361	1.8166869052154029	-0.6609436876342182
36	1.2	-0.227068380630713	1.8150663235110618	-0.5450688725224316	-0.24576514652223683	1.813596948933808	-0.4892488395528298	-0.22909478188701649	1.6809658095431528	-0.4838746997417381	-0.20764020311558662	1.5660263831942283	-0.49948442985905317	-0.24151813589566756	1.5265173219959016	-0.5045101073755103				-0.1958075424233134	1.5630145762922651	-0.4896745283001192	-0.21267665315337406	1.8171150003638517	-0.5994026718773928	-0.20940934675555375	1.6822131369348994	-0.5798117300783606	-0.20658612367390947	1.550731176603918	-0.5684451780302372	-0.2555786820319561	1.5134392763376618	-0.5801258384777206	-0.24217185012919948	1.5189348063376475	-0.5974816209758778	-0.19615532587404788	1.5377485678090694	-0.556338441805156	-0.2110710390995348	1.9821660456040149	-0.5563213829373561	-0.24213575307036078	2.051760061397906	-0.5937438246636297	-0.23795613642710223	1.9777507919177677	-0.48345270735103035	-0.2558821000837641	1.8903788744182044	-0.4520898641827969	-0.2699857212261028	1.820434615563251	-0.4370700938999159	-0.18273838525403105	1.9853347472609435	-0.6409184720384457	-0.1817815812170341	1.8991953016913592	-0.663306828224138	-0.19237091046734467	1.820917099766669	-0.6545630225714523
37	1.2333333333333334	-0.22938638521447163	1.8188558444917073	-0.5432999679693395	-0.24780593154531094	1.817597164212833	-0.4875906080552366	-0.23137962646313	1.680393265039046	-0.4812829134251335	-0.20764020311558662	1.5660263831942283	-0.49948442985905317	-0.24151813589566756	1.5265173219959016	-0.5045101073755103				-0.1958075424233134	1.5630145762922651	-0.4896745283001192	-0.21267614011407412	1.8207014355838298	-0.5998455269031242	-0.20575330500071481	1.681546302594802	-0.5750769616433731	-0.20662416326491462	1.5507417326497688	-0.5684745552574241	-0.25522464543120865	1.5116019242963972	-0.5805052444499949	-0.24217121753714163	1.518940889651321	-0.5975520474625727	-0.19707165402996582	1.5374775105729988	-0.5595373646478804	-0.21300030799927094	1.9810393432223288	-0.5536972086375467	-0.24212536630638684	2.0516498339355227	-0.593676683902518	-0.23981856458043238	1.9789276366053727	-0.4814425266044379	-0.2559844634797994	1.8898347982481327	-0.4521653523864889	-0.2765953370327226	1.8135041034728998	-0.45048944187396006	-0.18183255816885618	1.9843968466381727	-0.6371775846514609	-0.17972798021887326	1.901208681175978	-0.6634875315670833	-0.18953047489687663	1.818211820429559	-0.6536357927306766
38	1.2666666666666666	-0.227581647684029	1.8179890151631135	-0.5450462958884829	-0.24715646924823576	1.8156582942263835	-0.4839251631055327	-0.23124613489675255	1.6794620818034893	-0.48128661558686403	-0.20764020311558662	1.5660263831942283	-0.49948442985905317	-0.24151813589566756	1.5265173219959016	-0.5045101073755103				-0.1958075424233134	1.5630145762922651	-0.4896745283001192	-0.21196307853848703	1.8194581702368786	-0.5965177914459854	-0.20685599951325753	1.6815025863806266	-0.5696440506687116	-0.2066375908765289	1.5510092631115997	-0.5684774559769651	-0.25414798397130467	1.5146164776089976	-0.586110576476183	-0.24012451421236827	1.5191109487962235	-0.5996636163538268	-0.19669357517816446	1.5380789682076383	-0.5604717182021195	-0.21223680993911098	1.9833929703458881	-0.5514224216407494	-0.24215198529793674	2.052834604531154	-0.5940937814340617	-0.24011179286794046	1.9817461819873103	-0.48265465891905796	-0.25726431731983984	1.8928041721704636	-0.4558787756777388	-0.2782659548496153	1.8177104094669378	-0.45450568484001613	-0.18094223312180213	1.984745514331172	-0.6340392902708519	-0.17767437922071244	1.9032220606605972	-0.6636682349100287	-0.1893054445675891	1.821349006363851	-0.6537197978047605
39	1.3	-0.2270924742156488	1.8199543020231037	-0.5452603592229052	-0.24654254214212637	1.8189080461843758	-0.4843820214692737	-0.22895645125994227	1.682932690590531	-0.4841373212890235	-0.20764020311558662	1.5660263831942283	-0.49948442985905317	-0.24151813589566756	1.5265173219959016	-0.5045101073755103				-0.1958075424233134	1.5630145762922651	-0.4896745283001192	-0.21157073570284665	1.8227234040494367	-0.5968374769726618	-0.2063828358985272	1.6839923984407419	-0.570363892203168	-0.20664563551540643	1.5510087294167014	-0.5683511377320181	-0.2563214874589631	1.5148443201948887	-0.5839462939071559	-0.24219254124940456	1.518994314605373	-0.5975425093720739	-0.19598356320144839	1.5395443746477842	-0.5568846600482278	-0.2122118084795326	1.9822911765333455	-0.5508921004893429	-0.24317202237041688	2.053773155214731	-0.5889909409204301	-0.2420050317612112	1.9803497979879099	-0.48003464977286037	-0.26078763335590166	1.894795651202207	-0.4602387495339053	-0.2802104728510576	1.8243214643901255	-0.4617307471798041	-0.17921682486732335	1.984425686088061	-0.6277670562253971	-0.1756207782225516	1.9052354401452163	-0.6638489382529741	-0.1912375543131337	1.8281757153557447	-0.6551090492019792
40	1.3333333333333333	-0.22778819171735282	1.8155443704747276	-0.5396045996916192	-0.24533719988218458	1.8136678081693627	-0.4803698706063299	-0.2301595241598893	1.6818193939405113	-0.4783557158620217	-0.20764020311558662	1.5660263831942283	-0.49948442985905317	-0.24151813589566756	1.5265173219959016	-0.5045101073755103				-0.1958075424233134	1.5630145762922651	-0.4896745283001192	-0.21128407095042953	1.8184449471012507	-0.5964645872875743	-0.2094086910455827	1.6830783003568455	-0.5715676820404146	-0.20643290679657025	1.552557482138007	-0.5689917536816327	-0.2542985014016835	1.5153123954831644	-0.586143324327081	-0.24015074601203643	1.519310876594704	-0.5996891919704284	-0.19665003821118107	1.537847047565173	-0.5604499687306028	-0.21214804072997176	1.9807899951613097	-0.550484530237515	-0.24312978767919607	2.0539742819164304	-0.5887781947600831	-0.23985481540813305	1.9803381362127743	-0.48155076611916714	-0.2589895640273842	1.8939345321798002	-0.45387992309868547	-0.2784785549761578	1.822186068204144	-0.463833712986189	-0.18005787838587564	1.9829979156250266	-0.6305292562457926	-0.17356717722439075	1.9072488196298352	-0.6640296415959195	-0.19316966405867825	1.8350024243476386	-0.6564983005991978
41	1.3666666666666667	-0.22804389974709485	1.811544861819087	-0.5389798633095503	-0.24451890642891347	1.809284759915941	-0.4765533942841144	-0.22929916255497543	1.6801783944305373	-0.474586299344827	-0.20764020311558662	1.5660263831942283	-0.49948442985905317	-0.24151813589566756	1.5265173219959016	-0.5045101073755103				-0.1958075424233134	1.5630145762922651	-0.4896745283001192	-0.2135681840046218	1.8145442582418447	-0.5937288900944668	-0.20735373651618294	1.680921591742306	-0.5734391234582662	-0.2068969057605848	1.5496319883605991	-0.5677828069114816	-0.25565522029491305	1.5135620568817796	-0.5800571564394971	-0.24222332568597665	1.5189268808349994	-0.597460661829525	-0.19619962395922189	1.5380710584759107	-0.5563526922173944	-0.21425029994650374	1.979238443391571	-0.5482589564064646	-0.2431709960250679	2.0540053687849493	-0.5887034144275143	-1.8036756170115522	1.8914393096707085	1.2629092843119716	-0.25791584896976116	1.88937126951857	-0.44994120107341745	-0.2784283700643489	1.818852479644093	-0.46345286138935093	-0.1852438807988897	1.9814289510389034	-0.6292157593170092	-0.1715135762262299	1.9092621991144543	-0.6642103449388648	-0.19510177380422283	1.8418291333395322	-0.6578875519964165
